<?xml version="1.0" encoding="UTF-8" standalone="no"?>
<!DOCTYPE svg PUBLIC "-//W3C//DTD SVG 1.1//EN" "http://www.w3.org/Graphics/SVG/1.1/DTD/svg11.dtd">
<svg width="100%" height="100%" viewBox="0 0 100 100" version="1.1" xmlns="http://www.w3.org/2000/svg" xmlns:xlink="http://www.w3.org/1999/xlink" xml:space="preserve" xmlns:serif="http://www.serif.com/" style="fill-rule:evenodd;clip-rule:evenodd;stroke-linecap:round;stroke-linejoin:round;stroke-miterlimit:1.5;">
    <g transform="matrix(1,0,0,1,0,5)">
        <path d="M10,20L55,40L90,15L90,65L55,90L10,70L10,20Z" style="fill:none;stroke:black;stroke-width:3.54px;"/>
        <path d="M55,40L55,90" style="fill:none;stroke:black;stroke-width:3.54px;"/>
        <path d="M10,20L45,0L90,15" style="fill:none;stroke:black;stroke-width:3.54px;"/>
    </g>
    <g transform="matrix(0.470677,0.211008,0.00357077,0.683691,8.78315,21.7747)">
        <path d="M21.837,60.149L21.837,55.363C25.552,57.252 28.782,58.197 31.528,58.197C34.036,58.197 36.107,57.439 37.742,55.923C39.377,54.407 40.195,52.451 40.195,50.054C40.195,47.641 39.294,45.677 37.492,44.161C35.691,42.645 32.631,41.887 28.314,41.887L25.814,41.887L25.814,38.101L29.29,38.101C32.464,38.101 34.762,37.391 36.183,35.97C37.603,34.55 38.314,32.966 38.314,31.22C38.314,29.649 37.734,28.32 36.575,27.232C35.417,26.145 33.639,25.601 31.242,25.601C28.56,25.601 25.671,26.363 22.575,27.887L22.575,23.554C25.671,22.395 28.504,21.816 31.075,21.816C35.679,21.816 38.857,22.724 40.611,24.542C42.365,26.359 43.242,28.435 43.242,30.768C43.242,32.482 42.778,34.097 41.849,35.613C40.921,37.129 39.21,38.482 36.718,39.673C38.925,40.324 40.587,41.121 41.706,42.066C42.825,43.01 43.675,44.125 44.254,45.411C44.833,46.697 45.123,48.133 45.123,49.72C45.123,53.276 43.81,56.209 41.183,58.518C38.556,60.828 35.155,61.982 30.98,61.982C29.774,61.982 28.46,61.895 27.04,61.72C25.619,61.546 23.885,61.022 21.837,60.149Z" style="fill-rule:nonzero;"/>
        <path d="M52.075,60.839L52.075,22.959L61.052,22.959C65.195,22.959 68.27,23.677 70.278,25.113C72.286,26.55 73.794,28.724 74.802,31.637C75.81,34.55 76.314,37.998 76.314,41.982C76.314,45.76 75.782,49.078 74.718,51.935C73.655,54.792 72.147,56.99 70.195,58.53C68.242,60.07 65.195,60.839 61.052,60.839L52.075,60.839ZM57.004,56.673L60.29,56.673C63.639,56.673 66.024,56.078 67.445,54.887C68.865,53.697 69.881,52.046 70.492,49.935C71.103,47.824 71.409,44.919 71.409,41.22C71.409,37.586 71.052,34.792 70.337,32.839C69.623,30.887 68.599,29.387 67.266,28.339C65.933,27.292 63.742,26.768 60.695,26.768L57.004,26.768L57.004,56.673Z" style="fill-rule:nonzero;"/>
    </g>
</svg>
